# xmcd
#
# Track frame offsets: 
#        150
#        17610
#        28317
#        44896
#        61846
#        77038
#        92515
#        102378
#        115616
#        146063
#        176017
#        190798
#        213946
#        229580
#        239962
#        277040
#        291228
#        297026
#        311034
#        322734
#        334637
#
# Disc length: 4687 seconds
#
# Revision: 0
# Processed by: cddbd v1.5.2PL0 Copyright (c) Steve Scherf et al.
# Submitted via: ExactAudioCopyFreeDBPlugin 1.0
#
DISCID=37124d15
DTITLE=Ray Charles - Live In Paris - CD3
DYEAR=1962
DGENRE=Soul
TTITLE0=The Right Time
TTITLE1=Hit The Road Jack
TTITLE2=I Believe To My Soul
TTITLE3=My Bonnie
TTITLE4=Unchain My Heart
TTITLE5=I Can't Stop Loving You
TTITLE6=Bye Bye Love 
TTITLE7=Yes Indeed
TTITLE8=What'd I Say
TTITLE9=Georgia On My Mind
TTITLE10=Hide Nor Hair
TTITLE11=Careless Love
TTITLE12=Danger Zone
TTITLE13=Marie
TTITLE14=Drown In My Own Tears
TTITLE15=Yes Indeed
TTITLE16=Ray's French Intro
TTITLE17=One Mint Julep
TTITLE18=Let The Good Times Roll
TTITLE19=Margie
TTITLE20=Tell The Truth
EXTD=
EXTT0=
EXTT1=
EXTT2=
EXTT3=
EXTT4=
EXTT5=
EXTT6=
EXTT7=
EXTT8=
EXTT9=
EXTT10=
EXTT11=
EXTT12=
EXTT13=
EXTT14=
EXTT15=
EXTT16=
EXTT17=
EXTT18=
EXTT19=
EXTT20=
PLAYORDER=
